<svg xmlns="http://www.w3.org/2000/svg" viewBox="0 0 960 720" role="img" aria-label="Premium abstract renters and condo insurance visual showing an apartment key, room outline, and lease-protection glass panels">
  <defs>
    <linearGradient id="bg" x1="0" y1="0" x2="1" y2="1">
      <stop offset="0" stop-color="#07131F"/>
      <stop offset=".48" stop-color="#10283A"/>
      <stop offset="1" stop-color="#173426"/>
    </linearGradient>
    <linearGradient id="glass" x1="0" y1="0" x2="1" y2="1">
      <stop offset="0" stop-color="#FFFFFF" stop-opacity=".28"/>
      <stop offset=".52" stop-color="#9ADCF7" stop-opacity=".12"/>
      <stop offset="1" stop-color="#FFFFFF" stop-opacity=".06"/>
    </linearGradient>
    <linearGradient id="accent" x1="0" y1="0" x2="1" y2="1">
      <stop offset="0" stop-color="#9ADCF7"/>
      <stop offset=".55" stop-color="#86CFA0"/>
      <stop offset="1" stop-color="#F4C96B"/>
    </linearGradient>
    <filter id="softGlow" x="-40%" y="-40%" width="180%" height="180%">
      <feGaussianBlur stdDeviation="18" result="blur"/>
      <feColorMatrix in="blur" type="matrix" values="1 0 0 0 0 0 1 0 0 0 0 0 1 0 0 0 0 0 .42 0"/>
      <feMerge><feMergeNode/><feMergeNode in="SourceGraphic"/></feMerge>
    </filter>
    <filter id="shadow" x="-20%" y="-20%" width="140%" height="140%">
      <feDropShadow dx="0" dy="26" stdDeviation="26" flood-color="#000000" flood-opacity=".38"/>
    </filter>
    <style>
      .line{fill:none;stroke:#fff;stroke-opacity:.18;stroke-width:2}
      .fine{fill:none;stroke:#fff;stroke-opacity:.16;stroke-width:1.4}
      .glyph{fill:none;stroke:url(#accent);stroke-width:18;stroke-linecap:round;stroke-linejoin:round;filter:url(#softGlow)}
      .chip{fill:rgba(255,255,255,.10);stroke:rgba(255,255,255,.24);stroke-width:2}
      .copy{font-family:Inter,ui-sans-serif,system-ui,sans-serif;font-weight:800;letter-spacing:0;fill:#FFF8EC}
      .caption{font-size:26px;fill:#E9F1FA;opacity:.82}
      @keyframes drift{from{transform:translate3d(-10px,0,0)}to{transform:translate3d(10px,-12px,0)}}
      .float{animation:drift 5.8s ease-in-out infinite alternate;transform-box:fill-box;transform-origin:center}
    </style>
  </defs>
  <rect width="960" height="720" rx="54" fill="url(#bg)"/>
  <path d="M0 520C180 440 254 580 430 498s284-246 530-154v376H0Z" fill="#9ADCF7" opacity=".08"/>
  <path d="M58 126C192 42 326 84 448 146c126 64 246 98 454 0" class="line"/>
  <path d="M82 592C242 524 370 538 518 590c118 42 228 44 360-40" class="fine"/>
  <g opacity=".54">
    <path d="M100 186h760M100 250h760M100 314h760M100 378h760M100 442h760M100 506h760" class="fine"/>
    <path d="M176 112v496M300 112v496M424 112v496M548 112v496M672 112v496M796 112v496" class="fine"/>
  </g>
  <g filter="url(#shadow)">
    <rect x="92" y="84" width="776" height="552" rx="42" fill="url(#glass)" stroke="rgba(255,255,255,.24)" stroke-width="2"/>
    <path d="M130 116h700" stroke="#fff" stroke-opacity=".25" stroke-width="2"/>
  </g>
  <g class="float">
    <rect x="148" y="146" width="664" height="386" rx="38" fill="rgba(255,255,255,.06)" stroke="rgba(255,255,255,.20)" stroke-width="2"/>
    <path d="M190 496C322 408 404 438 508 372c86-55 150-138 258-118" fill="none" stroke="#86CFA0" stroke-opacity=".38" stroke-width="6" stroke-linecap="round"/>
    <g class="glyph"><circle cx="378" cy="352" r="94"/><circle cx="378" cy="352" r="34"/><path d="M458 404h210v62h-54v54h-66v-54h-90"/><path d="M276 574h408"/><path d="M322 248h312"/></g>
  </g>
  <g>
    <rect x="150" y="560" width="260" height="58" rx="22" class="chip"/>
    <text x="180" y="598" class="copy" font-size="28">Renters</text>
    <rect x="442" y="560" width="368" height="58" rx="22" class="chip"/>
    <text x="472" y="597" class="copy caption">Renters Insurance</text>
  </g>
  <path d="M122 108C210 146 252 120 318 108" stroke="#fff" stroke-opacity=".48" stroke-width="3" stroke-linecap="round"/>
  <circle cx="812" cy="132" r="7" fill="#F4C96B" opacity=".9"/>
  <circle cx="790" cy="132" r="7" fill="#86CFA0" opacity=".75"/>
</svg>
